<svg width="29" height="29" viewBox="0 0 29 29" fill="none" xmlns="http://www.w3.org/2000/svg">
<path fill-rule="evenodd" clip-rule="evenodd" d="M6.58623 8.52941H1.94318C0.871707 8.52941 0 7.6577 0 6.58623V1.94318C0 0.871707 0.871707 0 1.94318 0H6.58623C7.6577 0 8.52941 0.871707 8.52941 1.94318V6.58623C8.52941 7.6577 7.6577 8.52941 6.58623 8.52941ZM1.94318 1.48312C1.68894 1.48312 1.48312 1.68894 1.48312 1.94318V6.58623C1.48312 6.84048 1.68894 7.0463 1.94318 7.0463H6.58623C6.84048 7.0463 7.0463 6.84048 7.0463 6.58623V1.94318C7.0463 1.68894 6.84048 1.48312 6.58623 1.48312H1.94318Z" fill="#B5B5B5"/>
<path fill-rule="evenodd" clip-rule="evenodd" d="M1.94318 18.7647C0.871707 18.7647 0 17.893 0 16.8215V12.1785C0 11.107 0.871707 10.2353 1.94318 10.2353H6.58623C7.6577 10.2353 8.52941 11.107 8.52941 12.1785V16.8215C8.52941 17.893 7.6577 18.7647 6.58623 18.7647H1.94318ZM1.94318 11.7123C1.68894 11.7123 1.48312 11.9182 1.48312 12.1724V16.8155C1.48312 17.0697 1.68894 17.2755 1.94318 17.2755H6.58623C6.84048 17.2755 7.0463 17.0697 7.0463 16.8155V12.1724C7.0463 11.9182 6.84048 11.7123 6.58623 11.7123H1.94318Z" fill="#B5B5B5"/>
<path fill-rule="evenodd" clip-rule="evenodd" d="M1.94318 29C0.871707 29 0 28.1283 0 27.0568V22.4138C0 21.3423 0.871707 20.4706 1.94318 20.4706H6.58623C7.6577 20.4706 8.52941 21.3423 8.52941 22.4138V27.0568C8.52941 28.1283 7.6577 29 6.58623 29H1.94318ZM1.94318 21.9537C1.68894 21.9537 1.48312 22.1595 1.48312 22.4138V27.0568C1.48312 27.3111 1.68894 27.5169 1.94318 27.5169H6.58623C6.84048 27.5169 7.0463 27.3111 7.0463 27.0568V22.4138C7.0463 22.1595 6.84048 21.9537 6.58623 21.9537H1.94318Z" fill="#B5B5B5"/>
<path d="M28.2775 1.70589H12.095C11.6956 1.70589 11.3726 1.96015 11.3726 2.27451C11.3726 2.58888 11.6956 2.84314 12.095 2.84314H28.2775C28.6769 2.84314 29 2.58888 29 2.27451C29 1.96015 28.6769 1.70589 28.2775 1.70589Z" fill="#B5B5B5"/>
<path d="M28.2775 5.11765H12.095C11.6956 5.11765 11.3726 5.37191 11.3726 5.68627C11.3726 6.00064 11.6956 6.2549 12.095 6.2549H28.2775C28.6769 6.2549 29 6.00064 29 5.68627C28.9941 5.37191 28.6769 5.11765 28.2775 5.11765Z" fill="#B5B5B5"/>
<path d="M28.2775 11.9412H12.095C11.6956 11.9412 11.3726 12.1954 11.3726 12.5098C11.3726 12.8242 11.6956 13.0784 12.095 13.0784H28.2775C28.6769 13.0784 29 12.8242 29 12.5098C28.9941 12.1954 28.6769 11.9412 28.2775 11.9412Z" fill="#B5B5B5"/>
<path d="M28.2775 15.353H12.095C11.6956 15.353 11.3726 15.6072 11.3726 15.9216C11.3726 16.2359 11.6956 16.4902 12.095 16.4902H28.2775C28.6769 16.4902 29 16.2359 29 15.9216C28.9941 15.6072 28.6769 15.353 28.2775 15.353Z" fill="#B5B5B5"/>
<path d="M28.2775 22.7451H12.095C11.6956 22.7451 11.3726 22.9994 11.3726 23.3137C11.3726 23.6281 11.6956 23.8824 12.095 23.8824H28.2775C28.6769 23.8824 29 23.6281 29 23.3137C28.9941 22.9994 28.6769 22.7451 28.2775 22.7451Z" fill="#B5B5B5"/>
<path d="M29 26.1569C29 25.8425 28.6768 25.5882 28.2773 25.5882H12.0953C11.6957 25.5882 11.3726 25.8425 11.3726 26.1569C11.3726 26.4712 11.6957 26.7255 12.0953 26.7255H28.2832C28.6827 26.7209 29 26.4666 29 26.1569Z" fill="#B5B5B5"/>
</svg>
