<svg width="21" height="21" viewBox="0 0 21 21" fill="none" xmlns="http://www.w3.org/2000/svg">
<path d="M12.7564 10.9847L20.633 3.10813C21.1224 2.61918 21.1224 1.82585 20.633 1.3369C20.1437 0.847538 19.3512 0.847538 18.8618 1.3369L10.9852 9.21348L3.10822 1.3369C2.61886 0.847538 1.82636 0.847538 1.33699 1.3369C0.84763 1.82585 0.84763 2.61918 1.33699 3.10813L9.21399 10.9847L1.33699 18.8613C0.84763 19.3502 0.84763 20.1436 1.33699 20.6325C1.58167 20.8768 1.90235 20.9991 2.22261 20.9991C2.54286 20.9991 2.86354 20.8768 3.10822 20.6321L10.9852 12.7555L18.8618 20.6321C19.1065 20.8768 19.4272 20.9991 19.7474 20.9991C20.0677 20.9991 20.3883 20.8768 20.633 20.6321C21.1224 20.1432 21.1224 19.3498 20.633 18.8609L12.7564 10.9847Z" fill="#CBCBCB"/>
</svg>
