<svg width="22" height="22" viewBox="0 0 22 22" fill="none" xmlns="http://www.w3.org/2000/svg">
<path d="M21.906 0.609442C21.7289 0.203312 21.4224 0.000218909 20.985 0H1.01448C0.577685 0 0.270728 0.203312 0.0938872 0.609442C-0.082844 1.03637 -0.0101077 1.40118 0.312424 1.70316L8.00449 9.40618V16.9999C8.00449 17.271 8.10335 17.5051 8.3009 17.7033L12.2948 21.7029C12.4822 21.9007 12.7162 22 12.9971 22C13.1218 22 13.2518 21.9738 13.387 21.9217C13.7928 21.7445 13.9958 21.4374 13.9958 20.9999V9.40623L21.6876 1.70322C22.0102 1.40123 22.0828 1.03653 21.906 0.609442Z" fill="#2A2A2A"/>
</svg>
