<svg width="26" height="30" viewBox="0 0 26 30" fill="none" xmlns="http://www.w3.org/2000/svg">
<path d="M25.0931 14.879C24.692 14.879 24.3667 15.2043 24.3667 15.6054V28.5472H16.5716V20.4232C16.5716 20.0221 16.2463 19.6967 15.8452 19.6967H10.1549C9.75379 19.6967 9.42847 20.0221 9.42847 20.4232V26.865C9.42847 27.2661 9.75379 27.5914 10.1549 27.5914C10.556 27.5914 10.8813 27.2661 10.8813 26.865V21.1496H15.1188V28.5472H1.63333V10.7667L12.9999 1.65744L24.6387 10.9847C24.9518 11.2357 25.409 11.1851 25.6598 10.8721C25.9107 10.559 25.8603 10.102 25.5472 9.85102L13.4542 0.159555C13.1888 -0.0532869 12.8111 -0.0532869 12.5457 0.159555L0.452648 9.85102C0.280606 9.98892 0.180481 10.1973 0.180481 10.4179V29.2736C0.180481 29.6747 0.505677 30 0.906905 30H25.0931C25.4943 30 25.8195 29.6747 25.8195 29.2736V15.6054C25.8195 15.2042 25.4943 14.879 25.0931 14.879Z" fill="#B5B5B5"/>
</svg>
