<svg width="26" height="26" viewBox="0 0 26 26" fill="none" xmlns="http://www.w3.org/2000/svg">
<path fill-rule="evenodd" clip-rule="evenodd" d="M19.4553 18.3557L25.7751 24.6741C26.075 24.9738 26.075 25.4696 25.7751 25.7694C25.6252 25.9251 25.4234 26 25.2273 26C25.0313 26 24.8295 25.9193 24.6795 25.7694L18.3597 19.451C16.4107 21.1459 13.8678 22.1721 11.0885 22.1721C4.97627 22.1721 0 17.1969 0 11.086C0 4.97517 4.9705 0 11.0885 0C17.2007 0 22.177 4.9694 22.177 11.086C22.177 13.8647 21.1506 16.4071 19.4553 18.3557ZM11.2667 1.73333C6.01267 1.73333 1.73334 6.0056 1.73334 11.2638C1.73334 16.522 6.01267 20.8 11.2667 20.8C16.5264 20.8 20.8 16.5162 20.8 11.2638C20.8 6.01137 16.5264 1.73333 11.2667 1.73333Z" fill="#59A855"/>
</svg>
