<svg width="25" height="33" viewBox="0 0 25 33" fill="none" xmlns="http://www.w3.org/2000/svg">
<path fill-rule="evenodd" clip-rule="evenodd" d="M0.513672 13.0031C0.513672 6.19284 6.00593 0.652313 12.7568 0.652313C19.5077 0.652313 25 6.19284 25 13.003C25 15.2334 24.4295 17.601 23.3044 20.0401C22.416 21.9661 21.1806 23.943 19.6325 25.9159C17.008 29.2606 14.4204 31.4154 14.3116 31.5056C13.8912 31.8534 13.3391 32.045 12.7568 32.045C12.1746 32.045 11.6224 31.8534 11.2021 31.5056C11.0932 31.4156 8.50567 29.2606 5.88117 25.916C4.33303 23.943 3.09762 21.9661 2.20925 20.0402C1.08417 17.601 0.513672 15.2334 0.513672 13.0031ZM13.4185 30.4073C13.444 30.3862 16.0148 28.2429 18.5462 25.0116C20.848 22.0734 23.5919 17.605 23.5919 13.0031C23.5919 6.9761 18.7313 2.0728 12.7568 2.0728C6.78238 2.0728 1.9218 6.9761 1.92187 13.0031C1.92187 21.8852 11.9935 30.3232 12.0952 30.4073C12.262 30.5453 12.5031 30.6245 12.7568 30.6245C13.0106 30.6245 13.2517 30.5453 13.4185 30.4073Z" fill="#B5B5B5"/>
<path fill-rule="evenodd" clip-rule="evenodd" d="M6.16437 12.8955C6.16437 9.26038 9.12176 6.303 12.7568 6.303C16.3919 6.303 19.3493 9.26038 19.3493 12.8955C19.3493 16.5306 16.3919 19.4879 12.7568 19.4879C9.12176 19.4879 6.16437 16.5306 6.16437 12.8955ZM7.59047 12.8955C7.59047 15.7443 9.90806 18.0619 12.7569 18.0619C15.6057 18.0619 17.9233 15.7443 17.9233 12.8955C17.9233 10.0467 15.6057 7.72908 12.7569 7.72908C9.90806 7.72908 7.59047 10.0467 7.59047 12.8955Z" fill="#B5B5B5"/>
</svg>
