<svg width="30" height="30" viewBox="0 0 30 30" fill="none" xmlns="http://www.w3.org/2000/svg">
<path fill-rule="evenodd" clip-rule="evenodd" d="M22.4484 21.1796L29.7405 28.4701C30.0865 28.816 30.0865 29.388 29.7405 29.7339C29.5675 29.9135 29.3347 30 29.1084 30C28.8822 30 28.6494 29.9069 28.4764 29.7339L21.1843 22.4435C18.9355 24.3991 16.0013 25.5831 12.7944 25.5831C5.74185 25.5831 0 19.8426 0 12.7916C0 5.74058 5.7352 0 12.7944 0C19.847 0 25.5888 5.73392 25.5888 12.7916C25.5888 15.9978 24.4045 18.9313 22.4484 21.1796ZM13 2C6.93769 2 2 6.92954 2 12.9967C2 19.0638 6.93769 24 13 24C19.069 24 24 19.0572 24 12.9967C24 6.9362 19.069 2 13 2Z" fill="black"/>
</svg>
