<?xml version="1.0" standalone="no"?>
<!DOCTYPE svg PUBLIC "-//W3C//DTD SVG 20010904//EN"
 "http://www.w3.org/TR/2001/REC-SVG-20010904/DTD/svg10.dtd">
<svg version="1.0" xmlns="http://www.w3.org/2000/svg"
 width="700.000000pt" height="700.000000pt" viewBox="0 0 700.000000 700.000000"
 preserveAspectRatio="xMidYMid meet">
<metadata>
Created by potrace 1.11, written by Peter Selinger 2001-2013
</metadata>
<g transform="translate(0.000000,700.000000) scale(0.100000,-0.100000)"
fill="#000000" stroke="none">
<path d="M853 6989 c-215 -21 -401 -107 -556 -258 -126 -122 -211 -267 -259
-441 l-23 -85 0 -2695 0 -2695 23 -85 c48 -174 133 -319 259 -441 163 -159
340 -238 583 -260 77 -6 975 -9 2700 -6 2808 3 2622 0 2780 55 248 87 450 280
552 527 73 178 68 -29 68 2905 0 2934 5 2727 -68 2905 -102 247 -304 440 -552
527 -158 55 32 52 -2810 54 -1438 1 -2652 -2 -2697 -7z m5269 -565 c60 -42 88
-95 88 -167 0 -120 -88 -211 -205 -211 -116 0 -205 91 -205 209 0 67 26 123
73 159 50 38 76 46 144 43 51 -2 71 -9 105 -33z m-2753 -559 c637 -126 1141
-580 1320 -1185 206 -700 -50 -1440 -647 -1867 -314 -225 -727 -338 -1112
-305 -410 35 -771 203 -1060 492 -227 227 -374 485 -449 790 -118 478 -29 959
253 1375 90 133 303 343 440 434 231 153 493 251 766 285 82 10 407 -2 489
-19z m2811 -715 l0 -730 -180 0 -180 0 0 723 c0 398 3 727 7 730 3 4 84 7 180
7 l173 0 0 -730z m-904 -2562 c524 -527 541 -545 575 -618 31 -69 34 -82 34
-175 0 -92 -3 -106 -32 -168 -84 -176 -271 -280 -450 -250 -141 25 -137 21
-728 613 l-540 541 26 22 c15 12 57 44 95 72 135 97 334 305 434 453 19 28 37
52 40 52 3 0 249 -244 546 -542z m-3912 -353 c262 -55 466 -282 495 -550 23
-209 -71 -466 -294 -800 -117 -176 -289 -391 -318 -399 -31 -8 -60 16 -145
120 -222 272 -397 566 -468 786 -38 121 -44 274 -15 384 89 328 414 529 745
459z"/>
<path d="M2933 5460 c-308 -35 -578 -169 -791 -395 -168 -178 -286 -409 -328
-645 -20 -114 -20 -341 1 -448 74 -387 316 -717 656 -897 408 -214 900 -192
1287 59 292 190 497 499 557 840 20 116 19 326 -1 447 -75 436 -394 816 -814
969 -167 60 -400 89 -567 70z m135 -417 l-3 -138 -70 -8 c-169 -18 -301 -82
-426 -206 -72 -72 -94 -102 -133 -181 -44 -91 -76 -207 -76 -281 l0 -29 -140
0 -140 0 0 54 c0 76 23 186 60 287 129 357 502 634 858 638 l73 1 -3 -137z"/>
<path d="M1134 1916 c-132 -41 -217 -161 -217 -306 -2 -333 442 -442 593 -146
31 61 35 78 35 146 0 68 -4 85 -35 146 -57 111 -160 175 -279 173 -31 0 -74
-6 -97 -13z"/>
</g>
</svg>
