<svg width="20" height="21" viewBox="0 0 20 21" fill="none" xmlns="http://www.w3.org/2000/svg"><path fill-rule="evenodd" clip-rule="evenodd" d="M1.442 8.048A2.266 2.266 0 0 0-.001 10.17c0 .97.6 1.799 1.442 2.12.108.295.278.572.51.809l6.286 6.407a2.193 2.193 0 0 0 3.143 0 2.297 2.297 0 0 0 0-3.204l-3.794-3.868h10.19c1.228 0 2.223-1.014 2.223-2.264 0-1.252-.995-2.267-2.222-2.267H7.587l3.793-3.866a2.299 2.299 0 0 0 0-3.205 2.194 2.194 0 0 0-3.143 0l-6.285 6.41a2.262 2.262 0 0 0-.51.806z" fill="#2A2A2A"/></svg>