<svg width="48" height="38" viewBox="0 0 48 38" fill="none" xmlns="http://www.w3.org/2000/svg"><path fill-rule="evenodd" clip-rule="evenodd" d="M0 17.597C0 10.3 5.885 4.364 13.118 4.364c7.234 0 13.118 5.936 13.118 13.233 0 2.39-.61 4.927-1.816 7.54-.952 2.064-2.276 4.182-3.935 6.296-2.812 3.584-5.584 5.892-5.7 5.989a2.61 2.61 0 0 1-1.667.578 2.61 2.61 0 0 1-1.666-.578c-.116-.096-2.889-2.405-5.7-5.99-1.66-2.113-2.983-4.231-3.935-6.295C.61 22.524 0 19.987 0 17.597zm13.827 18.648c.027-.022 2.782-2.319 5.494-5.781 2.467-3.148 5.407-7.936 5.407-12.867 0-6.458-5.208-11.711-11.61-11.711-6.401 0-11.61 5.253-11.61 11.711 0 9.517 10.792 18.558 10.901 18.648.179.148.437.233.71.233.271 0 .53-.085.708-.233z" fill="#B5B5B5"/><path fill-rule="evenodd" clip-rule="evenodd" d="M6.054 17.482a7.072 7.072 0 0 1 7.064-7.064 7.072 7.072 0 0 1 7.064 7.064 7.072 7.072 0 0 1-7.064 7.064 7.072 7.072 0 0 1-7.064-7.064zm1.528 0a5.542 5.542 0 0 0 5.536 5.535 5.542 5.542 0 0 0 5.536-5.535 5.542 5.542 0 0 0-5.536-5.536 5.542 5.542 0 0 0-5.536 5.536z" fill="#B5B5B5"/><path fill-rule="evenodd" clip-rule="evenodd" d="M32.19 22c5.799 0 10.5-4.701 10.5-10.5S37.989 1 32.19 1s-10.5 4.701-10.5 10.5S26.39 22 32.19 22z" fill="#59A855" filter="url(#a)"/><path d="M32.19 7v8m-4.5-3h8" stroke="#fff" stroke-width="3" stroke-linecap="square"/><defs><filter id="a" x="16.69" y="0" width="31" height="31" filterUnits="userSpaceOnUse" color-interpolation-filters="sRGB"><feFlood flood-opacity="0" result="BackgroundImageFix"/><feColorMatrix in="SourceAlpha" values="0 0 0 0 0 0 0 0 0 0 0 0 0 0 0 0 0 0 127 0"/><feOffset dy="4"/><feGaussianBlur stdDeviation="2.5"/><feColorMatrix values="0 0 0 0 0 0 0 0 0 0 0 0 0 0 0 0 0 0 0.147645 0"/><feBlend in2="BackgroundImageFix" result="effect1_dropShadow"/><feBlend in="SourceGraphic" in2="effect1_dropShadow" result="shape"/></filter></defs></svg>