<svg width="30" height="31" viewBox="0 0 30 31" fill="none" xmlns="http://www.w3.org/2000/svg"><path d="M28.636 7.6H4.656l4.49-4.39a1.312 1.312 0 0 0 0-1.884 1.386 1.386 0 0 0-1.928 0L.399 7.99a1.312 1.312 0 0 0 0 1.885l6.819 6.665c.266.26.615.39.964.39s.698-.13.964-.39a1.312 1.312 0 0 0 0-1.885l-4.49-4.39h23.98c.754 0 1.364-.596 1.364-1.332 0-.736-.61-1.333-1.364-1.333zm-5.854 7.721a1.386 1.386 0 0 0-1.928 0 1.312 1.312 0 0 0 0 1.885l4.49 4.39H1.364C.61 21.595 0 22.191 0 22.927s.61 1.333 1.364 1.333h23.98l-4.49 4.39a1.312 1.312 0 0 0 0 1.884c.266.26.615.39.964.39.35 0 .698-.13.964-.39l6.819-6.664a1.312 1.312 0 0 0 0-1.885l-6.819-6.665z" fill="#59A855"/></svg>