<svg xmlns="http://www.w3.org/2000/svg"><symbol id="icon_arrow_right" viewBox="0 0 16 28"><path d="M2.5 2.5l11.18 11.18m-.18.82L2.32 25.68" stroke-width="3" stroke-linecap="square"/></symbol><symbol id="icon_catalogue" viewBox="0 0 29 29"><path fill-rule="evenodd" clip-rule="evenodd" d="M6.586 8.53H1.943A1.945 1.945 0 0 1 0 6.585V1.943C0 .872.872 0 1.943 0h4.643C7.658 0 8.53.872 8.53 1.943v4.643A1.945 1.945 0 0 1 6.586 8.53zM1.943 1.482a.46.46 0 0 0-.46.46v4.643c0 .254.206.46.46.46h4.643a.46.46 0 0 0 .46-.46V1.943a.46.46 0 0 0-.46-.46H1.943zm0 17.283A1.945 1.945 0 0 1 0 16.82v-4.643c0-1.071.872-1.943 1.943-1.943h4.643c1.072 0 1.943.872 1.943 1.944v4.643a1.945 1.945 0 0 1-1.943 1.943H1.943zm0-7.053a.46.46 0 0 0-.46.46v4.643c0 .255.206.46.46.46h4.643a.46.46 0 0 0 .46-.46v-4.643a.46.46 0 0 0-.46-.46H1.943zm0 17.288A1.945 1.945 0 0 1 0 27.057v-4.643c0-1.072.872-1.943 1.943-1.943h4.643c1.072 0 1.943.871 1.943 1.943v4.643A1.945 1.945 0 0 1 6.586 29H1.943zm0-7.046a.46.46 0 0 0-.46.46v4.643c0 .254.206.46.46.46h4.643a.46.46 0 0 0 .46-.46v-4.643a.46.46 0 0 0-.46-.46H1.943z"/><path d="M28.277 1.706H12.096c-.4 0-.722.254-.722.569 0 .314.323.568.722.568h16.182c.4 0 .723-.254.723-.568 0-.315-.323-.57-.723-.57zm0 3.412H12.096c-.4 0-.722.254-.722.568 0 .315.323.569.722.569h16.182c.4 0 .723-.254.723-.569-.006-.314-.323-.568-.723-.568zm0 6.823H12.096c-.4 0-.722.254-.722.569 0 .314.323.568.722.568h16.182c.4 0 .723-.254.723-.568-.006-.315-.323-.569-.723-.569zm0 3.412H12.096c-.4 0-.722.254-.722.569 0 .314.323.568.722.568h16.182c.4 0 .723-.254.723-.568-.006-.315-.323-.569-.723-.569zm0 7.392H12.096c-.4 0-.722.254-.722.569 0 .314.323.568.722.568h16.182c.4 0 .723-.254.723-.568-.006-.315-.323-.569-.723-.569zM29 26.157c0-.314-.323-.569-.723-.569H12.095c-.4 0-.722.255-.722.569 0 .314.323.569.722.569h16.188c.4-.005.717-.26.717-.57z"/></symbol><symbol id="icon_close" viewBox="0 0 21 21"><path d="M12.756 10.985l7.877-7.877a1.252 1.252 0 1 0-1.771-1.771l-7.877 7.876-7.877-7.876a1.252 1.252 0 1 0-1.771 1.771l7.877 7.877-7.877 7.876a1.252 1.252 0 1 0 1.771 1.771l7.877-7.877 7.877 7.877a1.249 1.249 0 0 0 1.771 0 1.25 1.25 0 0 0 0-1.771l-7.877-7.876z"/></symbol><symbol id="icon_filters" viewBox="0 0 22 22"><path d="M21.906.61c-.177-.407-.484-.61-.921-.61H1.015C.577 0 .27.203.093.61c-.177.426-.104.791.218 1.093l7.692 7.703V17c0 .271.1.505.297.703l3.994 4a.928.928 0 0 0 .702.297c.125 0 .255-.026.39-.078.406-.178.609-.485.609-.922V9.406l7.692-7.703c.322-.302.395-.666.218-1.094z"/></symbol><symbol id="icon_house" viewBox="0 0 26 30"><path d="M25.093 14.879a.727.727 0 0 0-.726.726v12.942h-7.795v-8.124a.727.727 0 0 0-.727-.726h-5.69a.727.727 0 0 0-.727.726v6.442a.727.727 0 0 0 1.453 0V21.15h4.238v7.397H1.633v-17.78L13 1.657l11.639 9.328a.726.726 0 1 0 .908-1.134L13.454.16a.726.726 0 0 0-.908 0L.453 9.85a.726.726 0 0 0-.273.567v18.856c0 .4.326.726.727.726h24.186a.726.726 0 0 0 .727-.726V15.605a.726.726 0 0 0-.727-.726z"/></symbol><symbol id="icon_refresh" viewBox="0 0 612.035 612.035"><path d="M323.128 56.236l5.646-9.57 40.17-40.169C271.247-13.921 165.482 13.786 89.65 89.646-16.421 195.717-28.355 360.261 53.875 479.49L10.98 522.386l137.7 19.667-19.667-137.7-34.968 34.967c-60.978-96.724-49.322-226.078 34.94-310.34 53.244-53.243 124.486-77.501 194.143-72.744zm258.264 13.743l-137.7-19.667 19.668 137.7 38.25-38.25c78.726 98.31 72.521 242.186-18.583 333.317-61.116 61.117-145.989 84.039-224.882 68.739l-45.65 45.649c105.654 33.799 226.05 8.791 309.895-75.054 112.858-112.858 119.146-291.979 18.805-412.209l40.197-40.225z"/></symbol><symbol id="icon_search" viewBox="0 0 26 26"><path fill-rule="evenodd" clip-rule="evenodd" d="M19.455 18.356l6.32 6.318A.78.78 0 0 1 25.227 26a.784.784 0 0 1-.547-.23l-6.32-6.319a11.045 11.045 0 0 1-7.271 2.721C4.975 22.172 0 17.197 0 11.086 0 4.976 4.97 0 11.088 0c6.113 0 11.089 4.97 11.089 11.086a11.04 11.04 0 0 1-2.722 7.27zM11.267 1.733c-5.254 0-9.534 4.273-9.534 9.53 0 5.259 4.28 9.537 9.534 9.537 5.26 0 9.533-4.284 9.533-9.536 0-5.253-4.274-9.53-9.533-9.53z"/></symbol><symbol id="icon_shops" viewBox="0 0 25 33"><path fill-rule="evenodd" clip-rule="evenodd" d="M.514 13.003c0-6.81 5.492-12.35 12.243-12.35C19.507.652 25 6.192 25 13.002c0 2.23-.57 4.598-1.696 7.037-.888 1.926-2.123 3.903-3.671 5.876-2.625 3.345-5.213 5.5-5.321 5.59a2.44 2.44 0 0 1-1.555.539 2.436 2.436 0 0 1-1.555-.54c-.109-.09-2.696-2.244-5.32-5.589-1.549-1.973-2.784-3.95-3.673-5.876C1.084 17.601.514 15.233.514 13.003zm12.905 17.404c.025-.02 2.596-2.164 5.127-5.395 2.302-2.939 5.046-7.407 5.046-12.009 0-6.027-4.86-10.93-10.835-10.93-5.975 0-10.835 4.903-10.835 10.93 0 8.882 10.071 17.32 10.173 17.404.167.138.408.218.662.218.254 0 .495-.08.662-.218z"/><path fill-rule="evenodd" clip-rule="evenodd" d="M6.164 12.896a6.6 6.6 0 0 1 6.593-6.593 6.6 6.6 0 0 1 6.592 6.593 6.6 6.6 0 0 1-6.592 6.592 6.6 6.6 0 0 1-6.593-6.592zm1.426 0a5.172 5.172 0 0 0 5.167 5.166 5.172 5.172 0 0 0 5.166-5.167 5.172 5.172 0 0 0-5.166-5.166 5.172 5.172 0 0 0-5.167 5.167z"/></symbol><symbol id="icon_star" viewBox="0 0 39 37"><path fill-rule="evenodd" d="M19.5 2.501l5.603 10.056 11.395 2.166-7.933 8.382 1.44 11.394L19.5 29.623 8.995 34.499l1.439-11.394-7.932-8.382 11.395-2.166L19.5 2.501"/></symbol></svg>