<svg width="62" height="62" viewBox="0 0 62 62" fill="none" xmlns="http://www.w3.org/2000/svg"><g clip-path="url(#a)"><path d="M59.326 42.15c1.27-1.62 1.88-3.358 1.802-5.147-.078-1.97-.96-3.514-1.685-4.46.842-2.1 1.166-5.407-1.647-7.974-2.062-1.88-5.562-2.723-10.411-2.49-3.41.156-6.262.792-6.38.818h-.012c-.648.116-1.335.259-2.036.415-.051-.83.091-2.892 1.621-7.533 1.815-5.524 1.711-9.75-.337-12.577C38.089.233 34.653 0 33.641 0c-.972 0-1.866.402-2.502 1.141-1.439 1.672-1.27 4.758-1.089 6.184-1.711 4.59-6.508 15.844-10.566 18.969a1.385 1.385 0 0 0-.208.181c-1.193 1.258-1.997 2.62-2.541 3.812a5.35 5.35 0 0 0-2.567-.648H6.259a5.398 5.398 0 0 0-5.394 5.393v21.069a5.398 5.398 0 0 0 5.394 5.393h7.909a5.38 5.38 0 0 0 3.111-.985l3.047.363c.467.065 8.765 1.115 17.283.947 1.543.116 2.995.181 4.343.181 2.321 0 4.344-.181 6.03-.544 3.967-.843 6.676-2.529 8.05-5.005 1.05-1.893 1.05-3.773.882-4.966 2.58-2.334 3.034-4.914 2.944-6.729a8.762 8.762 0 0 0-.532-2.606zM6.259 57.994A1.895 1.895 0 0 1 4.366 56.1V35.019c0-1.05.856-1.893 1.893-1.893h7.909c1.05 0 1.893.856 1.893 1.893v21.069c0 1.05-.856 1.893-1.893 1.893H6.259v.013zm49.748-17.36a1.742 1.742 0 0 0-.234 2.112c0 .014.532.921.597 2.166.09 1.698-.726 3.202-2.438 4.486a1.767 1.767 0 0 0-.596 1.996c0 .013.557 1.725-.35 3.345-.869 1.556-2.8 2.671-5.73 3.294-2.348.505-5.537.596-9.453.285h-.181c-8.337.181-16.764-.908-16.855-.92h-.013l-1.31-.156c.079-.363.117-.752.117-1.141V35.019c0-.557-.09-1.102-.246-1.608.233-.868.882-2.8 2.412-4.447 5.821-4.615 11.513-20.186 11.76-20.86.103-.273.129-.571.077-.87-.22-1.451-.143-3.228.168-3.76.688.014 2.542.208 3.657 1.751 1.322 1.828 1.27 5.095-.156 9.426-2.178 6.6-2.36 10.074-.635 11.604.855.765 1.996.803 2.826.505a36.464 36.464 0 0 1 2.256-.453c.052-.013.117-.026.169-.04 3.98-.868 11.11-1.4 13.587.856 2.1 1.92.61 4.46.441 4.733-.48.726-.337 1.672.311 2.256.013.013 1.375 1.296 1.44 3.02.051 1.154-.493 2.334-1.621 3.501z" fill="#59A855"/></g><defs><clipPath id="a"><path fill="#fff" d="M0 0h62v62H0z"/></clipPath></defs></svg>