<svg width="36" height="36" viewBox="0 0 36 36" fill="none" xmlns="http://www.w3.org/2000/svg"><path fill-rule="evenodd" clip-rule="evenodd" d="M32.336 16.39c-.805-6.766-6.12-12.082-12.725-12.726V.28h-3.222v3.383A14.094 14.094 0 0 0 3.664 16.389H.28v3.222h3.383c.805 6.765 6.12 12.08 12.725 12.725v3.383h3.222v-3.383c6.765-.805 12.08-6.12 12.725-12.725h3.383v-3.222h-3.383zM18 11.556c-3.544 0-6.443 2.9-6.443 6.443 0 3.544 2.9 6.443 6.443 6.443 3.544 0 6.443-2.9 6.443-6.443 0-3.544-2.9-6.443-6.443-6.443zM6.724 18c0 6.282 4.994 11.276 11.276 11.276S29.276 24.282 29.276 18 24.282 6.724 18 6.724 6.724 11.718 6.724 18z" fill="#59A855"/></svg>