<svg width="119" height="74" viewBox="0 0 119 74" fill="none" xmlns="http://www.w3.org/2000/svg">
<path d="M104.119 72.8492C103.95 73.0678 103.636 73.1082 103.418 72.9395L99.8558 70.1896C99.6372 70.0209 99.5968 69.7069 99.7656 69.4883C99.9343 69.2697 100.248 69.2293 100.467 69.3981L103.633 71.8423L106.077 68.676C106.246 68.4574 106.56 68.417 106.779 68.5858C106.997 68.7545 107.038 69.0685 106.869 69.2871L104.119 72.8492ZM8.35227 14.3674C37.7207 9.8812 60.0776 11.7804 75.9142 21.1582C91.7799 30.5532 100.99 47.3843 104.219 72.4798L103.228 72.6075C100.021 47.6922 90.9129 31.202 75.4046 22.0186C59.8672 12.818 37.7941 10.8816 8.50328 15.356L8.35227 14.3674Z" fill="#C6C6C6"/>
</svg>
