<svg width="20" height="21" viewBox="0 0 20 21" fill="none" xmlns="http://www.w3.org/2000/svg">
<path fill-rule="evenodd" clip-rule="evenodd" d="M1.44201 8.0476C0.599072 8.36949 -0.000854492 9.1986 -0.000854492 10.1708C-0.000854492 11.1413 0.598792 11.9698 1.44142 12.2918C1.54932 12.5864 1.7194 12.8627 1.95166 13.0995L8.237 19.5067C9.10509 20.391 10.5118 20.391 11.38 19.5067C12.2476 18.6215 12.2476 17.1874 11.38 16.3027L7.58609 12.4352H17.7768C19.0041 12.4352 19.9991 11.4207 19.9991 10.1708C19.9991 8.91895 19.0041 7.90439 17.7768 7.90439H7.58675L11.38 4.03806C12.2476 3.15288 12.2476 1.71775 11.38 0.833043C10.5118 -0.0511183 9.10509 -0.0511183 8.237 0.833043L1.95166 7.24183C1.71983 7.47818 1.54994 7.75375 1.44201 8.0476Z" fill="#2A2A2A"/>
</svg>
