<svg width="48" height="38" viewBox="0 0 48 38" fill="none" xmlns="http://www.w3.org/2000/svg">
<path fill-rule="evenodd" clip-rule="evenodd" d="M0 17.5971C0 10.3002 5.88479 4.36365 13.1182 4.36365C20.3516 4.36365 26.2364 10.3002 26.2364 17.597C26.2364 19.9868 25.6251 22.5236 24.4196 25.1371C23.4677 27.2008 22.144 29.3189 20.4852 31.4329C17.6732 35.0166 14.9007 37.3255 14.7841 37.422C14.3336 37.7947 13.742 38 13.1182 38C12.4943 38 11.9027 37.7947 11.4524 37.4221C11.3357 37.3256 8.5632 35.0167 5.75112 31.4329C4.09233 29.3189 2.76863 27.2008 1.81676 25.1372C0.611269 22.5237 0 19.9868 0 17.5971ZM13.8271 36.2453C13.8544 36.2227 16.609 33.9261 19.3213 30.464C21.7876 27.3158 24.7276 22.528 24.7276 17.5971C24.7276 11.1394 19.5196 5.88567 13.1182 5.88567C6.71671 5.88567 1.50874 11.1394 1.50881 17.5971C1.50881 27.1141 12.3003 36.1551 12.4093 36.2453C12.5879 36.3932 12.8463 36.478 13.1182 36.478C13.39 36.478 13.6484 36.3932 13.8271 36.2453Z" fill="#B5B5B5"/>
<path fill-rule="evenodd" clip-rule="evenodd" d="M6.05444 17.4819C6.05444 13.587 9.22321 10.4182 13.1181 10.4182C17.013 10.4182 20.1817 13.587 20.1817 17.4819C20.1817 21.3767 17.013 24.5455 13.1181 24.5455C9.22321 24.5455 6.05444 21.3767 6.05444 17.4819ZM7.58242 17.4819C7.58242 20.5343 10.0656 23.0175 13.1181 23.0175C16.1705 23.0175 18.6537 20.5343 18.6537 17.4819C18.6537 14.4295 16.1705 11.9462 13.1181 11.9462C10.0656 11.9462 7.58242 14.4295 7.58242 17.4819Z" fill="#B5B5B5"/>
<g filter="url(#filter0_d)">
<path fill-rule="evenodd" clip-rule="evenodd" d="M32.1899 22C37.9889 22 42.6899 17.299 42.6899 11.5C42.6899 5.70101 37.9889 1 32.1899 1C26.391 1 21.6899 5.70101 21.6899 11.5C21.6899 17.299 26.391 22 32.1899 22Z" fill="#59A855"/>
</g>
<path d="M32.1899 7V15" stroke="white" stroke-width="3" stroke-linecap="square"/>
<path d="M27.6899 12H35.6899" stroke="white" stroke-width="3" stroke-linecap="square"/>
<defs>
<filter id="filter0_d" x="16.6899" y="0" width="31" height="31" filterUnits="userSpaceOnUse" color-interpolation-filters="sRGB">
<feFlood flood-opacity="0" result="BackgroundImageFix"/>
<feColorMatrix in="SourceAlpha" type="matrix" values="0 0 0 0 0 0 0 0 0 0 0 0 0 0 0 0 0 0 127 0"/>
<feOffset dy="4"/>
<feGaussianBlur stdDeviation="2.5"/>
<feColorMatrix type="matrix" values="0 0 0 0 0 0 0 0 0 0 0 0 0 0 0 0 0 0 0.147645 0"/>
<feBlend mode="normal" in2="BackgroundImageFix" result="effect1_dropShadow"/>
<feBlend mode="normal" in="SourceGraphic" in2="effect1_dropShadow" result="shape"/>
</filter>
</defs>
</svg>
