<svg width="30" height="31" viewBox="0 0 30 31" fill="none" xmlns="http://www.w3.org/2000/svg">
<path d="M28.6364 7.59975H4.65577L9.14603 3.21058C9.67858 2.69013 9.67858 1.84613 9.14603 1.32559C8.61358 0.805045 7.75012 0.805045 7.21758 1.32559L0.399408 7.99011C-0.133136 8.51057 -0.133136 9.35456 0.399408 9.87511L7.21758 16.5396C7.48385 16.7999 7.83285 16.9301 8.18185 16.9301C8.53085 16.9301 8.87985 16.7999 9.14603 16.5396C9.67858 16.0192 9.67858 15.1752 9.14603 14.6546L4.65577 10.2656H28.6364C29.3895 10.2656 30 9.66877 30 8.93265C30 8.19654 29.3895 7.59975 28.6364 7.59975Z" fill="#59A855"/>
<path d="M22.7824 15.3211C22.2499 14.8006 21.3865 14.8006 20.8539 15.3211C20.3214 15.8415 20.3214 16.6855 20.8539 17.2061L25.3443 21.5953H1.36364C0.610546 21.5953 0 22.192 0 22.9282C0 23.6643 0.610546 24.2611 1.36364 24.2611H25.3443L20.854 28.6503C20.3215 29.1707 20.3215 30.0147 20.854 30.5353C21.1202 30.7954 21.4692 30.9256 21.8182 30.9256C22.1672 30.9256 22.5162 30.7954 22.7824 30.5352L29.6006 23.8706C30.1331 23.3502 30.1331 22.5062 29.6006 21.9856L22.7824 15.3211Z" fill="#59A855"/>
</svg>
