<svg width="117" height="44" viewBox="0 0 117 44" fill="none" xmlns="http://www.w3.org/2000/svg">
<path d="M114.288 0.753021C114.183 0.497438 113.891 0.375007 113.636 0.479563L109.471 2.1834C109.215 2.28796 109.093 2.57991 109.197 2.83549C109.302 3.09108 109.594 3.21351 109.849 3.10895L113.552 1.59443L115.066 5.29662C115.171 5.5522 115.463 5.67463 115.718 5.57007C115.974 5.46552 116.096 5.17357 115.992 4.91798L114.288 0.753021ZM0.937546 28.4269C40.2733 56.0916 97.3859 41.4364 114.286 1.1357L113.364 0.748972C96.7422 40.3855 40.3952 54.9547 1.51282 27.6089L0.937546 28.4269Z" fill="#C6C6C6"/>
</svg>
