<svg width="63" height="39" viewBox="0 0 63 39" fill="none" xmlns="http://www.w3.org/2000/svg">
<path d="M55.137 37.5623C54.9533 37.7685 54.6372 37.7867 54.431 37.603L51.0713 34.6094C50.8651 34.4257 50.8469 34.1096 51.0306 33.9034C51.2143 33.6973 51.5303 33.679 51.7365 33.8627L54.723 36.5238L57.384 33.5373C57.5677 33.3311 57.8838 33.3129 58.0899 33.4966C58.2961 33.6803 58.3143 33.9964 58.1306 34.2025L55.137 37.5623ZM3.67772 9.69413C15.8559 6.27883 28.3959 7.37239 38.0748 12.207C47.7644 17.047 54.597 25.648 55.2628 37.2009L54.2645 37.2585C53.6226 26.1199 47.0512 17.8086 37.628 13.1016C28.194 8.38934 15.9124 7.30155 3.94775 10.657L3.67772 9.69413Z" fill="#C6C6C6"/>
</svg>
