<svg width="62" height="62" viewBox="0 0 62 62" fill="none" xmlns="http://www.w3.org/2000/svg">
<g clip-path="url(#clip0)">
<path d="M59.3259 42.1501C60.5965 40.5295 61.2059 38.7921 61.1281 37.0029C61.0503 35.0322 60.1686 33.4893 59.4426 32.5429C60.2853 30.4425 60.6095 27.1363 57.796 24.5692C55.7345 22.6893 52.2339 21.8465 47.3849 22.0799C43.975 22.2355 41.1226 22.8708 41.0059 22.8967H40.993C40.3447 23.0134 39.6576 23.156 38.9574 23.3116C38.9056 22.4818 39.0482 20.4203 40.5781 15.7788C42.3932 10.2555 42.2895 6.02886 40.241 3.20243C38.0888 0.233375 34.653 0 33.6417 0C32.6693 0 31.7747 0.401924 31.1394 1.14095C29.7002 2.81347 29.8688 5.89921 30.0503 7.32539C28.3389 11.9151 23.5417 23.169 19.4836 26.2936C19.4058 26.3455 19.341 26.4103 19.2761 26.4751C18.0833 27.7327 17.2795 29.0941 16.7349 30.2869C15.97 29.872 15.1013 29.6386 14.1678 29.6386H6.25898C3.27696 29.6386 0.865417 32.0632 0.865417 35.0322V56.1008C0.865417 59.0828 3.28993 61.4944 6.25898 61.4944H14.1678C15.3217 61.4944 16.3978 61.1313 17.2795 60.509L20.3263 60.872C20.7931 60.9368 29.0908 61.987 37.609 61.8185C39.1519 61.9352 40.604 62 41.9524 62C44.2732 62 46.2958 61.8185 47.9813 61.4555C51.9486 60.6127 54.6584 58.9272 56.0327 56.4509C57.0829 54.5579 57.0829 52.678 56.9143 51.4851C59.4944 49.1514 59.9482 46.5713 59.8575 44.7562C59.8056 43.706 59.5722 42.8114 59.3259 42.1501ZM6.25898 57.9937C5.20879 57.9937 4.36604 57.138 4.36604 56.1008V35.0192C4.36604 33.9691 5.22175 33.1263 6.25898 33.1263H14.1678C15.218 33.1263 16.0607 33.982 16.0607 35.0192V56.0878C16.0607 57.138 15.205 57.9808 14.1678 57.9808H6.25898V57.9937ZM56.0068 40.6332C55.4622 41.2037 55.3585 42.0724 55.7734 42.7465C55.7734 42.7595 56.305 43.6671 56.3698 44.9118C56.4606 46.6102 55.6438 48.1142 53.9323 49.3977C53.323 49.8645 53.0766 50.6683 53.3359 51.3944C53.3359 51.4074 53.8934 53.1188 52.9859 54.7394C52.1172 56.2953 50.1854 57.4103 47.2552 58.0326C44.9085 58.5383 41.719 58.629 37.8035 58.3179C37.7517 58.3179 37.6868 58.3179 37.622 58.3179C29.2853 58.4994 20.8579 57.4103 20.7671 57.3973H20.7542L19.4447 57.2417C19.5225 56.8787 19.5614 56.4897 19.5614 56.1008V35.0192C19.5614 34.4617 19.4706 33.9172 19.315 33.4115C19.5484 32.5429 20.1967 30.611 21.7266 28.9644C27.548 24.3488 33.2397 8.7775 33.4861 8.1033C33.5898 7.83103 33.6157 7.53283 33.5639 7.23463C33.3435 5.78252 33.4212 4.00627 33.7324 3.4747C34.4196 3.48766 36.2736 3.68214 37.3886 5.22501C38.7111 7.05312 38.6592 10.3204 37.233 14.6508C35.0549 21.2501 34.8734 24.7248 36.5977 26.2547C37.4535 27.0197 38.5944 27.0585 39.4242 26.7603C40.2151 26.5788 40.967 26.4233 41.6801 26.3066C41.732 26.2936 41.7968 26.2806 41.8487 26.2677C45.829 25.399 52.9599 24.8674 55.4363 27.1234C57.5367 29.0422 56.0457 31.5834 55.8771 31.8557C55.3974 32.5818 55.54 33.5282 56.1883 34.1117C56.2013 34.1246 57.5626 35.4082 57.6274 37.1326C57.6793 38.2865 57.1348 39.4663 56.0068 40.6332Z" fill="#59A855"/>
</g>
<defs>
<clipPath id="clip0">
<rect width="62" height="62" fill="white"/>
</clipPath>
</defs>
</svg>
