<svg width="36" height="36" viewBox="0 0 36 36" fill="none" xmlns="http://www.w3.org/2000/svg">
<path fill-rule="evenodd" clip-rule="evenodd" d="M32.3361 16.3892C31.5307 9.62386 26.2151 4.30824 19.6108 3.66392V0.28125H16.3892V3.66392C9.62386 4.30824 4.30824 9.62386 3.66392 16.3892H0.28125V19.6108H3.66392C4.46932 26.3761 9.78494 31.6918 16.3892 32.3361V35.7188H19.6108V32.3361C26.3761 31.5307 31.6918 26.2151 32.3361 19.6108H35.7188V16.3892H32.3361ZM18 11.5568C14.4563 11.5568 11.5568 14.4562 11.5568 18C11.5568 21.5437 14.4563 24.4431 18 24.4431C21.5438 24.4431 24.4432 21.5437 24.4432 18C24.4432 14.4562 21.5438 11.5568 18 11.5568ZM6.72443 18C6.72443 24.2821 11.7179 29.2756 18 29.2756C24.2821 29.2756 29.2756 24.2821 29.2756 18C29.2756 11.7179 24.2821 6.72447 18 6.72447C11.7179 6.72447 6.72443 11.7179 6.72443 18Z" fill="#59A855"/>
</svg>
